P3
10 10
255

#Nombre d'itérations max = 100, Zone du plan complexe : x ∈ [-5.000000; 7.000000], y ∈ [-1.000000; -1.000000] 
0 0 0
0 0 0
0 0 0
5 5 5
15 15 15
2 2 2
0 0 0
0 0 0
0 0 0
0 0 0

0 0 0
0 0 0
0 0 0
5 5 5
15 15 15
2 2 2
0 0 0
0 0 0
0 0 0
0 0 0

0 0 0
0 0 0
0 0 0
5 5 5
15 15 15
2 2 2
0 0 0
0 0 0
0 0 0
0 0 0

0 0 0
0 0 0
0 0 0
5 5 5
15 15 15
2 2 2
0 0 0
0 0 0
0 0 0
0 0 0

0 0 0
0 0 0
0 0 0
5 5 5
15 15 15
2 2 2
0 0 0
0 0 0
0 0 0
0 0 0

0 0 0
0 0 0
0 0 0
5 5 5
15 15 15
2 2 2
0 0 0
0 0 0
0 0 0
0 0 0

0 0 0
0 0 0
0 0 0
5 5 5
15 15 15
2 2 2
0 0 0
0 0 0
0 0 0
0 0 0

0 0 0
0 0 0
0 0 0
5 5 5
15 15 15
2 2 2
0 0 0
0 0 0
0 0 0
0 0 0

0 0 0
0 0 0
0 0 0
5 5 5
15 15 15
2 2 2
0 0 0
0 0 0
0 0 0
0 0 0

0 0 0
0 0 0
0 0 0
5 5 5
15 15 15
2 2 2
0 0 0
0 0 0
0 0 0
0 0 0

